<svg xmlns="http://www.w3.org/2000/svg" xmlns:xlink="http://www.w3.org/1999/xlink" width="374.999" height="597.548" viewBox="0 0 374.999 597.548">
  <defs>
    <linearGradient id="linear-gradient" x1="1" y1="0.199" x2="0.059" y2="0.959" gradientUnits="objectBoundingBox">
      <stop offset="0" stop-color="#00b4d8"/>
      <stop offset="1" stop-color="#0077b6"/>
    </linearGradient>
    <linearGradient id="linear-gradient-2" x1="1" y1="0.199" x2="0.059" y2="0.959" gradientUnits="objectBoundingBox">
      <stop offset="0" stop-color="#48cae4"/>
      <stop offset="1" stop-color="#0077b6"/>
    </linearGradient>
    <linearGradient id="linear-gradient-3" x1="1" y1="0.199" x2="0.059" y2="0.959" gradientUnits="objectBoundingBox">
      <stop offset="0" stop-color="#caf0f8"/>
      <stop offset="1" stop-color="#0077b6"/>
    </linearGradient>
  </defs>
  <g id="Group_47" data-name="Group 47" transform="translate(0 -214.452)">
    <path id="Path_100" data-name="Path 100" d="M166.079,1586.452s-21.708,417.282-375,270.4c1.114,135.756,0,327.149,0,327.149h375Z" transform="translate(208.92 -1372)" fill="url(#linear-gradient)"/>
    <path id="Path_102" data-name="Path 102" d="M166.079,1753.7s-21.708,250.03-375,103.147c1.114,135.756,0,327.149,0,327.149h375Z" transform="translate(208.92 -1372)" fill="url(#linear-gradient-2)"/>
    <path id="Path_101" data-name="Path 101" d="M166.079,2184s-21.708-161.906-375-308.79c1.114,135.756,0,308.79,0,308.79Z" transform="translate(208.92 -1372)" fill="url(#linear-gradient-3)"/>
  </g>
</svg>
