<svg xmlns="http://www.w3.org/2000/svg" width="373.604" height="456.275" viewBox="0 0 373.604 456.275">
  <g id="Group_46" data-name="Group 46" transform="translate(-1216 -414.03)">
    <path id="Path_86" data-name="Path 86" d="M547,2017.038s31.988-152.855,107.344-74.987,71.589-120.57,153.225-108.011,74.1-20.1,113.034-136.011c-1.256,131.874,0,263.747,0,263.747V2126.3L547,2121.281Z" transform="translate(669 -1284)" fill="#83b286"/>
    <path id="Path_85" data-name="Path 85" d="M547,2017.038s101.065,10.048,129.951-94.2,121.826-86.66,135.641-89.172S920.6,1843.719,920.6,1698.03c-1.256,131.874,0,263.747,0,263.747V2126.3H547Z" transform="translate(669 -1256)" fill="#638065"/>
    <path id="Path_87" data-name="Path 87" d="M841.977,2041.222V1872.605s-51.021,58.691-115.239,40.9-76.9,128.418-123.292,127.715C649.665,2041.528,841.977,2041.222,841.977,2041.222Z" transform="translate(747.627 -1171.269)" fill="#95ccde"/>
  </g>
</svg>
