<svg xmlns="http://www.w3.org/2000/svg" xmlns:xlink="http://www.w3.org/1999/xlink" width="104.905" height="125.743" viewBox="0 0 104.905 125.743">
  <defs>
    <linearGradient id="linear-gradient" x1="0.523" y1="0.112" x2="0.41" y2="1.995" gradientUnits="objectBoundingBox">
      <stop offset="0" stop-color="#0096c7"/>
      <stop offset="1" stop-color="#caf0f8"/>
    </linearGradient>
    <linearGradient id="linear-gradient-10" x1="0.797" y1="0.157" x2="0.361" y2="1.325" gradientUnits="objectBoundingBox">
      <stop offset="0" stop-color="#90e0ef"/>
      <stop offset="1" stop-color="#0077b6"/>
    </linearGradient>
    <linearGradient id="linear-gradient-11" x1="0.392" y1="1.175" x2="1.397" y2="-1.021" gradientUnits="objectBoundingBox">
      <stop offset="0" stop-color="#0077b6"/>
      <stop offset="1" stop-color="#caf0f8"/>
    </linearGradient>
    <linearGradient id="linear-gradient-12" x1="0.427" y1="0.978" x2="0.635" y2="-0.297" gradientUnits="objectBoundingBox">
      <stop offset="0" stop-color="#f8f8f8"/>
      <stop offset="1" stop-color="#cecece"/>
    </linearGradient>
    <linearGradient id="linear-gradient-13" x1="0.517" y1="0.047" x2="0.476" y2="1.467" xlink:href="#linear-gradient-12"/>
    <linearGradient id="linear-gradient-14" x1="0.516" y1="1.213" x2="0.514" y2="-0.793" gradientUnits="objectBoundingBox">
      <stop offset="0" stop-color="#023e8a"/>
      <stop offset="0.489" stop-color="#48cae4"/>
      <stop offset="1" stop-color="#ade8f4"/>
    </linearGradient>
  </defs>
  <g id="Group_46" data-name="Group 46" transform="translate(-135.048 -114.362)">
    <g id="logo" transform="translate(135.048 114.362)">
      <path id="Path_85" data-name="Path 85" d="M180.92,378.12h5.925a9.253,9.253,0,0,1,1.86.186,4.96,4.96,0,0,1,1.817,1,4.005,4.005,0,0,1,1.252,1.619,5.371,5.371,0,0,1,.506,2.405,5.213,5.213,0,0,1-1.28,3.413,4.751,4.751,0,0,1-3.835,1.663H183.4v6.584H180.92ZM183.4,386h3.669a2.583,2.583,0,0,0,2.078-.885,2.919,2.919,0,0,0,.664-1.86,3.369,3.369,0,0,0-.273-1.43,2.07,2.07,0,0,0-.79-.822,3,3,0,0,0-1.773-.478h-3.578Z" transform="translate(-180.92 -290.219)" fill="url(#linear-gradient)"/>
      <path id="Path_86" data-name="Path 86" d="M216,390.188h2.334v1.272h.036a3.7,3.7,0,0,1,3.025-1.422,3.744,3.744,0,0,1,2.445.92l-1.706,2.089a2.409,2.409,0,0,0-1.536-.6,2.168,2.168,0,0,0-1.536.6,2.408,2.408,0,0,0-.743,1.912v7.24H216Z" transform="translate(-202.144 -297.428)" fill="url(#linear-gradient)"/>
      <path id="Path_87" data-name="Path 87" d="M239.47,378.12H241.8v2.405H239.47Zm0,4.858H241.8v12.007H239.47Z" transform="translate(-216.344 -290.219)" fill="url(#linear-gradient)"/>
      <path id="Path_88" data-name="Path 88" d="M249.49,390.42h2.473l2.733,8.417h.043l2.721-8.417h2.5L255.7,402.427h-1.927Z" transform="translate(-222.407 -297.661)" fill="url(#linear-gradient)"/>
      <path id="Path_89" data-name="Path 89" d="M285,401.133h-.043a1.975,1.975,0,0,1-1.007.9,4.66,4.66,0,0,1-1.86.3,4.1,4.1,0,0,1-3-1.062,3.385,3.385,0,0,1-1.11-2.6,3.468,3.468,0,0,1,.964-2.508,3.775,3.775,0,0,1,2.824-1.043H285V393.85q.024-1.58-2.37-1.544a4.038,4.038,0,0,0-1.378.186,1.7,1.7,0,0,0-.829.743l-1.837-1.446a4.478,4.478,0,0,1,3.93-1.75,6.07,6.07,0,0,1,3.5.857,3.5,3.5,0,0,1,1.331,3.1v8.2h-2.334Zm0-4.029h-2.8q-2.046.047-2.022,1.45a1.3,1.3,0,0,0,.529,1.039,2.379,2.379,0,0,0,1.671.478,4.186,4.186,0,0,0,2.078-.359c.4-.253.549-.833.549-1.738Z" transform="translate(-239.641 -297.429)" fill="url(#linear-gradient)"/>
      <path id="Path_90" data-name="Path 90" d="M310.81,378.12h2.334l7.4,11.991h.043V378.12h2.476v16.865h-2.346L313.33,383h-.043v11.987H310.81Z" transform="translate(-259.507 -290.219)" fill="url(#linear-gradient)"/>
      <path id="Path_91" data-name="Path 91" d="M352.187,397.081a2.859,2.859,0,0,0,.79,2.2,2.646,2.646,0,0,0,1.975.766,3.444,3.444,0,0,0,2.544-1.185l1.694,1.489A5.415,5.415,0,0,1,355,402.3a5.881,5.881,0,0,1-1.793-.277,4.378,4.378,0,0,1-.849-.395,4.148,4.148,0,0,1-.818-.545,4.8,4.8,0,0,1-1.185-1.876,7.608,7.608,0,0,1-.5-3.006,8.6,8.6,0,0,1,.435-2.962,5.159,5.159,0,0,1,1.122-1.9,4.158,4.158,0,0,1,1.556-1.019,4.806,4.806,0,0,1,1.683-.32,4.74,4.74,0,0,1,3.373,1.355,5.01,5.01,0,0,1,1.422,3.725v1.975Zm4.917-1.975a3.16,3.16,0,0,0-.731-2.129,2.532,2.532,0,0,0-3.46,0,3.306,3.306,0,0,0-.727,2.129Z" transform="translate(-283.126 -297.406)" fill="url(#linear-gradient)"/>
      <path id="Path_92" data-name="Path 92" d="M385.843,394.014H385.8l-2.429,8.413H381.3L377.58,390.42h2.476l2.232,8.425h.043l2.642-8.425h1.694l2.642,8.425h.047l2.212-8.425h2.476l-3.709,12.007h-2.074Z" transform="translate(-299.905 -297.661)" fill="url(#linear-gradient)"/>
      <path id="Path_93" data-name="Path 93" d="M422.919,398.562a4.787,4.787,0,0,0,3.685,1.54,3.061,3.061,0,0,0,1.651-.395,1.272,1.272,0,0,0,.64-1.134,1.011,1.011,0,0,0-.395-.9,1.975,1.975,0,0,0-1.043-.288l-2.066-.186A3.883,3.883,0,0,1,423,396.18a3.16,3.16,0,0,1-.964-2.4,3.3,3.3,0,0,1,1.268-2.765,4.917,4.917,0,0,1,3.073-.924,9.347,9.347,0,0,1,1.446.1,7.31,7.31,0,0,1,1.185.324,6.836,6.836,0,0,1,1.927,1.216l-1.45,1.746a6.988,6.988,0,0,0-1.426-.829,4.57,4.57,0,0,0-1.706-.292,2.317,2.317,0,0,0-1.536.395,1.331,1.331,0,0,0-.462,1.043.829.829,0,0,0,.348.707,1.975,1.975,0,0,0,1.185.431l1.927.15a3.556,3.556,0,0,1,2.627,1.134,3.926,3.926,0,0,1,.754,2.469,3.16,3.16,0,0,1-1.378,2.7,5.854,5.854,0,0,1-3.44,1,7.267,7.267,0,0,1-5.135-2.149Z" transform="translate(-326.32 -297.461)" fill="url(#linear-gradient)"/>
      <path id="Path_94" data-name="Path 94" d="M291.3,246.94H225.737a3.27,3.27,0,0,1-2.9-4.775l32.783-63.053a3.266,3.266,0,0,1,5.8,0L294.2,242.165a3.27,3.27,0,0,1-2.9,4.775Z" transform="translate(-206.06 -168.748)" fill="url(#linear-gradient-10)"/>
      <path id="Path_95" data-name="Path 95" d="M291.465,296.7H225.9a3.259,3.259,0,0,1-3.16-2.437c25.4-3.1,43.253-19.16,54.822-34.667l16.814,32.329a3.27,3.27,0,0,1-2.911,4.775Z" transform="translate(-206.222 -218.511)" fill="url(#linear-gradient-11)"/>
      <path id="Path_96" data-name="Path 96" d="M417.94,368.21l.059.111v-.111Z" transform="translate(-324.324 -284.223)" fill="#231f20"/>
      <path id="Path_97" data-name="Path 97" d="M131.745,100.957v36.827H127.76V100.957l1.955-2.567h.071Z" transform="translate(-77.298 -59.529)" fill="url(#linear-gradient-12)"/>
      <path id="Path_98" data-name="Path 98" d="M297.6,195.058a14.768,14.768,0,0,0-12.027.024l-8.425,16.194a14.7,14.7,0,0,0,5.3,8.768l8.859-8.863,9.124,9.124a14.689,14.689,0,0,0,5.652-8.982Zm2.824,19.681-6.339-6.32L291.31,205.6l-2.792,2.792-5.948,5.952a10.775,10.775,0,1,1,17.873.395Z" transform="translate(-239.142 -178.694)" fill="url(#linear-gradient-13)"/>
      <rect id="Rectangle_168" data-name="Rectangle 168" width="104.905" height="104.905" fill="none"/>
    </g>
    <path id="Path_99" data-name="Path 99" d="M-70.16-11A2.146,2.146,0,0,0-72.1-9.877h-.091V-10.9h-1.173v8.224h1.219V-5.66h.1a2.013,2.013,0,0,0,1.9,1.037c1.559,0,2.551-1.23,2.551-3.191S-68.59-11-70.16-11Zm-.346,5.283c-1.02,0-1.661-.8-1.661-2.092s.64-2.1,1.666-2.1,1.649.788,1.649,2.092S-69.468-5.717-70.506-5.717Zm6.977,1.111c1.8,0,2.908-1.207,2.908-3.208s-1.111-3.2-2.908-3.2-2.913,1.213-2.913,3.2S-65.336-4.606-63.528-4.606Zm0-1.083c-1.06,0-1.655-.777-1.655-2.126s.6-2.12,1.655-2.12,1.655.782,1.655,2.12S-62.474-5.689-63.528-5.689ZM-51.359-10.9h-1.219l-1.1,4.71h-.1l-1.27-4.71h-1.168l-1.27,4.71h-.091l-1.105-4.71h-1.236l1.7,6.173h1.253l1.27-4.546h.1l1.275,4.546h1.264Zm3.554.918a1.489,1.489,0,0,1,1.519,1.6H-49.4A1.578,1.578,0,0,1-47.805-9.979Zm1.513,3.588a1.48,1.48,0,0,1-1.468.748A1.631,1.631,0,0,1-49.4-7.412V-7.48h4.359V-7.9c0-1.938-1.037-3.112-2.755-3.112-1.74,0-2.845,1.253-2.845,3.225s1.083,3.185,2.851,3.185a2.507,2.507,0,0,0,2.675-1.785Zm2.709,1.666h1.219V-8.37a1.446,1.446,0,0,1,1.576-1.451,3.351,3.351,0,0,1,.68.074v-1.2A2.574,2.574,0,0,0-40.652-11a1.674,1.674,0,0,0-1.666,1.049h-.091V-10.9h-1.173Zm7.023-5.254a1.489,1.489,0,0,1,1.519,1.6h-3.117A1.578,1.578,0,0,1-36.56-9.979Zm1.513,3.588a1.48,1.48,0,0,1-1.468.748,1.631,1.631,0,0,1-1.644-1.768V-7.48H-33.8V-7.9c0-1.938-1.037-3.112-2.755-3.112-1.74,0-2.845,1.253-2.845,3.225s1.083,3.185,2.851,3.185a2.507,2.507,0,0,0,2.675-1.785Zm4.965,1.768A2.143,2.143,0,0,0-28.143-5.7h.1v.975h1.168v-8.581H-28.1v3.389h-.091A2.035,2.035,0,0,0-30.081-11c-1.559,0-2.562,1.236-2.562,3.185S-31.651-4.623-30.081-4.623Zm.346-5.283c1.02,0,1.661.811,1.661,2.1s-.635,2.092-1.661,2.092-1.649-.788-1.649-2.1S-30.761-9.906-29.735-9.906Zm11.126,5.283c1.559,0,2.551-1.236,2.551-3.191S-17.045-11-18.609-11a2.048,2.048,0,0,0-1.9,1.083h-.1v-3.389h-1.219v8.581h1.173V-5.7h.091A2.138,2.138,0,0,0-18.609-4.623Zm-.351-5.283c1.032,0,1.649.794,1.649,2.092s-.618,2.1-1.649,2.1-1.661-.8-1.666-2.092S-19.981-9.906-18.96-9.906Zm4.738,7.419c1.258,0,1.842-.482,2.369-1.984l2.3-6.428h-1.292l-1.542,4.9h-.1l-1.547-4.9h-1.326l2.233,6.2-.091.3a1.056,1.056,0,0,1-1.117.862,2.934,2.934,0,0,1-.4-.023v1.049C-14.613-2.5-14.324-2.486-14.222-2.486ZM-5.13-4.725h1.219V-8.37A1.446,1.446,0,0,1-2.336-9.821a3.351,3.351,0,0,1,.68.074v-1.2A2.574,2.574,0,0,0-2.2-11,1.674,1.674,0,0,0-3.866-9.951h-.091V-10.9H-5.13ZM1.892-9.979a1.489,1.489,0,0,1,1.519,1.6H.294A1.578,1.578,0,0,1,1.892-9.979ZM3.406-6.392a1.48,1.48,0,0,1-1.468.748A1.631,1.631,0,0,1,.294-7.412V-7.48H4.653V-7.9c0-1.938-1.037-3.112-2.755-3.112-1.74,0-2.845,1.253-2.845,3.225S.135-4.606,1.9-4.606A2.507,2.507,0,0,0,4.579-6.392ZM8.371-4.623A2.143,2.143,0,0,0,10.309-5.7h.1v.975h1.168v-8.581H10.355v3.389h-.091A2.035,2.035,0,0,0,8.371-11C6.812-11,5.809-9.764,5.809-7.814S6.8-4.623,8.371-4.623Zm.346-5.283c1.02,0,1.661.811,1.661,2.1S9.743-5.717,8.717-5.717,7.067-6.5,7.067-7.814,7.691-9.906,8.717-9.906Zm4.738,5.181h1.219v-8.581H13.455Zm3.656,2.239c1.258,0,1.842-.482,2.369-1.984l2.3-6.428H20.489l-1.542,4.9h-.1L17.3-10.9H15.978l2.233,6.2-.091.3A1.056,1.056,0,0,1,17-3.541a2.934,2.934,0,0,1-.4-.023v1.049C16.72-2.5,17.009-2.486,17.111-2.486Z" transform="translate(213.29 242.591)" fill="url(#linear-gradient-14)"/>
  </g>
</svg>
