<svg xmlns="http://www.w3.org/2000/svg" viewBox="0 0 430 860"><defs><linearGradient id="a" x1=".5" x2=".5" y2="1" gradientUnits="objectBoundingBox"><stop offset="0" stop-color="#1a1a1a"/><stop offset="1" stop-color="#0a0a0a"/></linearGradient><linearGradient id="b" x1=".5" x2=".5" y2="1" gradientUnits="objectBoundingBox"><stop offset="0" stop-color="#141414"/><stop offset="1" stop-color="#1c1c1c"/></linearGradient><linearGradient id="c" x1=".5" x2=".5" y2="1" gradientUnits="objectBoundingBox"><stop offset="0" stop-color="#191919"/><stop offset="1" stop-color="#0d0d0d"/></linearGradient><linearGradient id="d" x1="1" y1=".377" x2="0" y2=".377" gradientUnits="objectBoundingBox"><stop offset="0" stop-opacity="0"/><stop offset=".322" stop-opacity="0"/><stop offset="1"/></linearGradient><linearGradient id="e" x1=".5" x2=".5" y2="1" gradientUnits="objectBoundingBox"><stop offset="0" stop-color="#1c1c1c"/><stop offset="1" stop-color="#0d0d0d"/></linearGradient><linearGradient id="f" x1=".5" x2=".5" y2="1" gradientUnits="objectBoundingBox"><stop offset="0" stop-color="#0d0d0d"/><stop offset="1" stop-color="#313131"/></linearGradient><linearGradient id="g" x1=".5" x2=".5" y2="1" gradientUnits="objectBoundingBox"><stop offset="0" stop-color="#292929"/><stop offset="1" stop-color="#1a1a1a"/></linearGradient></defs><g data-name="iPhone X - Dark"><path d="M57 0h309a57 57 0 0157 57v746a57 57 0 01-57 57H57a57 57 0 01-57-57V57A57 57 0 0157 0z" transform="translate(3)" fill="url(#a)"/><path d="M47 0h313a47 47 0 0147 47v750a47 47 0 01-47 47H47a47 47 0 01-47-47V47A47 47 0 0147 0z" transform="translate(11 8)" fill="url(#b)"/><path data-name="Rectangle 21" d="M0 0h3a2 2 0 012 2v92a2 2 0 01-2 2H0V0z" transform="translate(425 200)" fill="url(#c)"/><path data-name="Rectangle 101" d="M0 0h3a2 2 0 012 2v92a2 2 0 01-2 2H0V0z" transform="translate(425 200)" fill="url(#d)"/><g data-name="Button"><path data-name="Path 76" d="M1 0h4v32H1a.972.972 0 01-1-.941V.941A.972.972 0 011 0z" transform="translate(0 117)" fill="url(#c)"/><g data-name="Group 40"><path data-name="Rectangle 149" d="M0 0h4a1 1 0 011 1v30a1 1 0 01-1 1H0V0z" transform="rotate(180 2.5 74.5)" fill="url(#d)"/></g></g><g data-name="Button"><path data-name="Path 81" d="M1 0h4v60H1a.97.97 0 01-1-.937V.938A.97.97 0 011 0z" transform="translate(0 180)" fill="url(#c)"/><g data-name="Group 42"><g data-name="Group 40"><path data-name="Rectangle 149" d="M0 0h4a1 1 0 011 1v58a1 1 0 01-1 1H0V0z" transform="rotate(180 2.5 120)" fill="url(#d)"/></g></g></g><g data-name="Button"><path data-name="Path 84" d="M1 0h4v60H1a.97.97 0 01-1-.937V.938A.97.97 0 011 0z" transform="translate(0 258)" fill="url(#c)"/><g data-name="Group 45"><g data-name="Group 40"><path data-name="Rectangle 149" d="M0 0h4a1 1 0 011 1v58a1 1 0 01-1 1H0V0z" transform="rotate(180 2.5 159)" fill="url(#d)"/></g></g></g><path d="M44.441 0h314.118A44.326 44.326 0 01403 44.211v751.578A44.326 44.326 0 01358.559 840H44.441A44.326 44.326 0 010 795.789V44.211A44.326 44.326 0 0144.441 0z" transform="translate(13 10)" fill="url(#e)"/><g transform="translate(-514 -1330)"><circle data-name="Ellipse 7" cx="7.5" cy="7.5" transform="translate(772 1355)" fill="url(#f)" r="7.5"/><circle data-name="Ellipse 8" cx="6.5" cy="6.5" r="6.5" transform="translate(773 1356)" fill="url(#g)"/><circle data-name="Ellipse 10" cx="4.5" cy="4.5" transform="translate(775 1358)" fill="#2d2d2d" r="4.5"/><ellipse data-name="Ellipse 9" cx="1.5" cy="1" rx="1.5" ry="1" transform="translate(778 1358)" fill="#5d5d5d"/></g><path data-name="Ear Peice" d="M187 29.5h55a3.5 3.5 0 010 7h-55a3.5 3.5 0 010-7z" fill="#111" stroke="#262626"/><path d="M364 836H65a38.043 38.043 0 01-38-38V62a38.043 38.043 0 0138-38h40.263a6.812 6.812 0 015.23 5.17c.164.724.336 1.671.535 2.766.383 2.109.858 4.725 1.566 7.368.915 3.42 4.955 14.588 18.529 14.728 5.12.053 37.044.064 62.923.064 47.606 0 102.231-.038 104.786-.064 13.574-.14 17.614-11.308 18.529-14.728.709-2.649 1.185-5.268 1.567-7.373.2-1.1.371-2.042.534-2.761a6.592 6.592 0 015.185-5.17H364a38.043 38.043 0 0138 38v736a38.043 38.043 0 01-38 38z" fill="#212121"/></g></svg>