<svg data-name="Status Bar - Dark" xmlns="http://www.w3.org/2000/svg" viewBox="0 0 375 44"><path data-name="Subtraction 13" d="M375 44H0v-6A38.043 38.043 0 0138 0h39.956a6.813 6.813 0 015.224 5.171c.164.723.336 1.67.536 2.766.383 2.109.858 4.724 1.566 7.368.915 3.419 4.955 14.587 18.529 14.727 5.124.053 37.047.064 62.924.064 47.607 0 102.231-.038 104.785-.064 13.572-.14 17.614-11.307 18.53-14.727.708-2.646 1.183-5.265 1.565-7.368.2-1.1.371-2.043.535-2.766A6.6 6.6 0 01297.328 0H337a38.043 38.043 0 0138 38v6z"/><path d="M323.495 18.859a9.772 9.772 0 016.329 2.306l1.176-1.27a11.176 11.176 0 00-15-.009l1.174 1.272a9.771 9.771 0 016.321-2.3zm0 3.666a5.939 5.939 0 013.8 1.366l1.245-1.344a7.722 7.722 0 00-10.092-.005l1.243 1.346a5.937 5.937 0 013.8-1.362zm2.56 2.71a3.92 3.92 0 00-5.117 0L323.494 28l2.56-2.766zM307.069 17.576a.588.588 0 01.593-.576h1.745a.58.58 0 01.593.576v9.849a.588.588 0 01-.593.576h-1.745a.58.58 0 01-.593-.576zm-4.69 2.9a.591.591 0 01.593-.576h1.745a.594.594 0 01.593.583v6.94a.591.591 0 01-.593.583h-1.745a.594.594 0 01-.593-.583zm-4.689 2.311a.588.588 0 01.593-.576h1.745a.579.579 0 01.593.576v4.637a.588.588 0 01-.593.576h-1.745a.579.579 0 01-.593-.576zM293 25.1a.587.587 0 01.593-.574h1.745a.579.579 0 01.593.574v2.327a.587.587 0 01-.593.573h-1.745a.579.579 0 01-.593-.572z" fill="#fff" fill-rule="evenodd"/><g transform="translate(337 18)"><path d="M20 3a1.852 1.852 0 011.5 1.75A1.852 1.852 0 0120 6.5z" fill="rgba(255,255,255,0.5)" fill-rule="evenodd"/><rect width="15" height="5.5" rx="1" transform="translate(2 2)" fill="#fff"/><g fill="none" stroke="#fff" opacity=".4"><rect width="19" height="9.5" rx="2.5" stroke="none"/><rect x=".5" y=".5" width="18" height="8.5" rx="2"/></g></g><path data-name="9:41 AM" d="M38.439 17.611a3.637 3.637 0 00-3.831 3.677v.015a3.381 3.381 0 003.464 3.516 2.919 2.919 0 002.776-1.6h.148c0 .081-.007.161-.007.242-.081 2.109-.828 3.845-2.607 3.845a1.984 1.984 0 01-1.978-1.318l-.022-.073h-1.633l.022.088a3.49 3.49 0 003.611 2.7c2.615 0 4.175-2.109 4.175-5.691v-.015c-.002-3.892-2.001-5.386-4.118-5.386zm-.007 5.881a2.147 2.147 0 01-2.2-2.234v-.015a2.223 2.223 0 012.227-2.256 2.236 2.236 0 012.219 2.3v.007a2.164 2.164 0 01-2.246 2.198zm7.383-2.043a1.057 1.057 0 001.069-1.07 1.052 1.052 0 00-1.07-1.069 1.058 1.058 0 00-1.076 1.069 1.063 1.063 0 001.076 1.07zm0 5.537a1.057 1.057 0 001.069-1.07 1.052 1.052 0 00-1.07-1.069 1.058 1.058 0 00-1.076 1.069 1.063 1.063 0 001.076 1.07zm8.349 1.45h1.582v-2.1h1.458v-1.394h-1.458v-7.075H53.41a141.562 141.562 0 00-4.402 7.075v1.394h5.156zm-3.581-3.464v-.1a119.808 119.808 0 013.508-5.621h.1v5.72zm11.044 3.464h1.641V17.867h-1.641l-2.783 1.978v1.611l2.659-1.9h.125z" fill="#fff"/></svg>